<svg width="140" height="40" viewBox="0 0 140 40" fill="none" xmlns="http://www.w3.org/2000/svg">
<path d="M4.70493 4.31747V8.94718H15.455V12.8H4.72323V18.495H16.7816V22.4721H0V0.384766H16.2601V4.31591L4.70493 4.31747Z" fill="black"/>
<path d="M68.8066 22.4979C67.2533 22.4979 65.7815 22.5078 64.3102 22.4801C64.1795 22.4801 63.9847 22.2429 63.9382 22.0815C63.8081 21.6426 63.7396 21.1854 63.6247 20.6384C62.5924 21.8411 61.1548 22.6234 59.5843 22.837C57.6454 23.0721 55.8084 22.8746 54.4154 21.2842C52.2884 18.8562 53.3078 14.4888 56.3486 13.4146C57.7395 12.9229 59.2635 12.8101 60.7249 12.5112C61.3759 12.401 62.0183 12.2454 62.6476 12.0457C62.8769 11.9692 63.0803 11.8305 63.2353 11.6451C63.3902 11.4597 63.4906 11.2349 63.5251 10.9957C63.5596 10.7566 63.527 10.5125 63.4308 10.2909C63.3346 10.0692 63.1787 9.87864 62.9805 9.74048C62.0588 8.99751 59.8555 8.90975 58.9898 9.69974C58.5448 10.2279 58.1654 10.8079 57.8596 11.4271H54.0027C53.6719 9.78438 54.8502 7.56069 56.5508 6.62911C58.0542 5.88741 59.7268 5.55579 61.3994 5.66775C62.8584 5.62877 64.3033 5.96176 65.5981 6.63538C66.3149 7.00578 66.9104 7.57411 67.3138 8.27288C67.7173 8.97165 67.9117 9.77151 67.874 10.5775C67.874 13.5678 67.8752 16.5583 67.8777 19.549C67.8777 20.3787 67.8098 21.2314 68.6651 21.7868C68.7931 21.8678 68.7544 22.2017 68.8066 22.4979ZM63.5453 14.7923C62.2537 15.0813 60.9851 15.3352 59.7343 15.6607C59.2616 15.7826 58.8184 15.9987 58.4312 16.2961C58.1377 16.5318 57.9231 16.8517 57.8164 17.2128C57.7097 17.5739 57.7158 17.959 57.834 18.3165C57.8857 18.6456 58.0356 18.9514 58.2641 19.1939C58.4927 19.4363 58.7891 19.604 59.1146 19.6749C60.8059 20.0454 63.6184 19.0234 63.5463 16.3974C63.5322 15.8671 63.5463 15.3352 63.5463 14.7897L63.5453 14.7923Z" fill="black"/>
<path d="M87.737 22.9087C83.889 22.9166 81.0592 21.1642 79.9035 17.9645C79.1113 15.7322 79.0745 13.3015 79.799 11.0463C80.2694 9.45422 81.2635 8.06757 82.6204 7.111C86.9152 4.00067 93.6196 5.7609 95.4661 10.5379C96.4107 12.9299 96.4318 15.5877 95.5251 17.9943C94.3522 21.1913 91.582 22.9019 87.737 22.9087ZM91.6269 14.1833C91.5747 13.7878 91.5276 13.0385 91.3745 12.3102C90.9984 10.515 89.7956 9.50553 87.9262 9.34513C87.1856 9.26084 86.4377 9.41896 85.7947 9.79578C85.1517 10.1726 84.6481 10.7478 84.3597 11.4351C83.6643 13.179 83.6226 15.1154 84.2422 16.8876C85.2437 19.8872 89.2193 19.697 90.5177 18.0753C91.3537 17.0303 91.5444 15.8072 91.63 14.1849L91.6269 14.1833Z" fill="black"/>
<path d="M19.1193 17.2493H23.4878C23.9878 18.8058 24.8363 19.496 26.4753 19.5483C27.2185 19.5741 27.9617 19.4994 28.6849 19.3262C28.9961 19.2732 29.2785 19.1117 29.4819 18.8703C29.6854 18.6289 29.7967 18.3232 29.7962 18.0075C29.7779 17.3152 29.2486 17.0508 28.7214 16.8909C27.456 16.5079 26.1655 16.2086 24.8938 15.846C24.1147 15.6244 23.3467 15.3574 22.5807 15.0967C19.6271 14.091 19.2368 11.5439 20.0352 9.17441C20.3151 8.39141 20.791 7.69321 21.4175 7.14642C22.0439 6.59963 22.8 6.2225 23.6137 6.05102C26.3698 5.31955 29.0788 5.49718 31.5847 7.02439C32.2813 7.43181 32.8495 8.02672 33.2246 8.74133C33.5996 9.45594 33.7664 10.2615 33.7059 11.0663C32.3767 11.0663 31.0366 11.0752 29.6975 11.0491C29.5903 11.0491 29.4843 10.8045 29.384 10.6682C29.0908 10.2659 28.8865 9.72302 28.4957 9.4832C27.947 9.14339 27.3181 8.95499 26.6729 8.93718C26.0277 8.91938 25.3893 9.07281 24.8227 9.38184C24.6217 9.50382 24.4502 9.66879 24.3204 9.8649C24.1907 10.061 24.106 10.2834 24.0724 10.5161C24.0546 10.8176 24.5202 11.3228 24.8708 11.4404C26.2428 11.9023 27.6587 12.2335 29.0506 12.6384C29.8534 12.8579 30.6448 13.1173 31.4216 13.4159C32.0867 13.6773 32.6803 14.0926 33.154 14.6275C33.6278 15.1625 33.9681 15.8021 34.1471 16.4938C34.3262 17.1856 34.3389 17.91 34.1842 18.6076C34.0295 19.3052 33.7118 19.9563 33.2571 20.5075C32.2804 21.6916 30.8963 22.4678 29.3766 22.6837C27.0606 23.172 24.6525 22.9782 22.4444 22.1257C21.4516 21.7592 20.5978 21.0924 20.0017 20.218C19.4055 19.3437 19.0967 18.3053 19.1182 17.2473L19.1193 17.2493Z" fill="black"/>
<path d="M113.834 22.4824H109.5V12.3023C109.474 10.4188 108.796 9.51909 107.27 9.33987C105.502 9.13088 103.981 10.0938 103.612 11.7318C103.472 12.4208 103.405 13.1228 103.413 13.8259C103.391 16.4519 103.404 19.0784 103.404 21.7044V22.4824H99.0469V6.13812H103.19V8.30694C103.504 7.91455 103.697 7.64443 103.922 7.39939C104.464 6.81981 105.126 6.36471 105.861 6.06544C106.597 5.76617 107.388 5.62983 108.181 5.6658C110.062 5.65065 111.795 6.09631 112.855 7.7834C113.385 8.55537 113.709 9.45023 113.795 10.3827C113.893 14.3886 113.834 18.4033 113.834 22.4824Z" fill="black"/>
<path d="M51.5829 12.0074H47.1418C46.9381 10.5926 46.228 9.65627 44.7907 9.39503C44.0469 9.24041 43.2722 9.38115 42.6303 9.78746C41.9884 10.1938 41.5297 10.8338 41.3512 11.5722C40.7922 13.3131 40.774 15.1825 41.2989 16.9339C41.7796 18.5479 42.858 19.3598 44.3743 19.3008C45.6998 19.2485 46.6998 18.2918 47.0677 16.7218C47.0912 16.6215 47.1152 16.5206 47.1455 16.3963H51.5699C51.3426 18.5808 50.5208 20.4079 48.7083 21.6733C46.133 23.4748 41.7007 23.3364 39.2169 21.4152C38.0788 20.5267 37.2635 19.2895 36.896 17.8932C36.2372 15.646 36.2325 13.2577 36.8824 11.0079C37.8809 7.54963 40.7101 5.56786 44.3983 5.65303C46.7071 5.70528 48.7281 6.38815 50.2344 8.22624C51.0928 9.30111 51.5674 10.632 51.5829 12.0074Z" fill="black"/>
<path d="M76.1194 22.4742H71.7969V0.384766H76.1194V22.4742Z" fill="black"/>
<path d="M124.049 14.5875C124.55 13.6601 125.03 12.7552 125.526 11.8591C126.686 9.76292 127.86 7.67455 129.206 5.68913C129.973 4.54406 130.841 3.46992 131.8 2.47954C132.457 1.74283 133.279 1.17206 134.2 0.81386C134.868 0.592574 135.564 0.461843 136.267 0.42514C137.482 0.353116 138.699 0.511239 139.855 0.891192C139.905 0.906867 139.952 0.92515 139.997 0.940302C140.007 0.983668 139.977 0.992554 139.956 1.00614C138.184 2.22839 136.553 3.64357 135.093 5.22569C133.151 7.29905 131.348 9.49825 129.696 11.809C127.218 15.2509 124.949 18.8395 122.904 22.5553C122.852 22.651 122.796 22.7466 122.728 22.8657C122.519 22.3955 122.319 21.9456 122.122 21.4942C121.419 19.8745 120.746 18.2454 119.942 16.6733C119.358 15.4639 118.589 14.3533 117.662 13.3816C117.44 13.1575 117.205 12.9464 116.959 12.7494C116.714 12.5566 116.456 12.3889 116.18 12.2081C116.36 12.0639 116.528 11.9228 116.702 11.7901C117.486 11.152 118.374 10.6531 119.327 10.3152C119.938 10.0979 120.594 10.0355 121.236 10.1334C121.55 10.1869 121.851 10.304 122.118 10.4773C122.386 10.6507 122.616 10.8767 122.794 11.1417C123.205 11.7782 123.51 12.4769 123.698 13.2108C123.835 13.658 123.943 14.1131 124.049 14.5875Z" fill="#FC8E26"/>
<path d="M48.1606 36.6152L51.7513 27.2652H53.0843L56.9111 36.6152H55.5016L54.4109 33.7834H50.5013L49.4744 36.6152H48.1606ZM50.8584 32.7757H54.0283L53.0524 30.1863C52.7548 29.3997 52.5337 28.7534 52.3891 28.2474C52.2701 28.8469 52.1021 29.4422 51.8853 30.0332L50.8584 32.7757ZM57.753 36.6152V29.8419H58.7862V30.8049C59.2837 30.0608 60.0023 29.6888 60.942 29.6888C61.3501 29.6888 61.7243 29.7632 62.0645 29.912C62.4089 30.0566 62.6661 30.2479 62.8362 30.486C63.0063 30.7241 63.1253 31.0069 63.1934 31.3343C63.2359 31.5469 63.2571 31.9189 63.2571 32.4504V36.6152H62.1091V32.4951C62.1091 32.0274 62.0645 31.6787 61.9752 31.4491C61.8859 31.2152 61.7264 31.0303 61.4968 30.8942C61.2715 30.7539 61.0057 30.6837 60.6996 30.6837C60.2106 30.6837 59.7875 30.8389 59.4304 31.1493C59.0775 31.4597 58.901 32.0486 58.901 32.916V36.6152H57.753ZM69.4182 36.6152V35.7606C68.9888 36.4324 68.3574 36.7683 67.524 36.7683C66.984 36.7683 66.4865 36.6195 66.0315 36.3218C65.5808 36.0242 65.2301 35.6096 64.9792 35.0782C64.7326 34.5424 64.6093 33.928 64.6093 33.2349C64.6093 32.5589 64.7219 31.9466 64.9473 31.3981C65.1727 30.8453 65.5107 30.4223 65.9614 30.1289C66.4121 29.8355 66.916 29.6888 67.473 29.6888C67.8812 29.6888 68.2447 29.776 68.5636 29.9503C68.8825 30.1204 69.1419 30.3436 69.3417 30.62V27.2652H70.4834V36.6152H69.4182ZM65.7892 33.2349C65.7892 34.1023 65.972 34.7507 66.3377 35.1802C66.7034 35.6096 67.1349 35.8244 67.6324 35.8244C68.1341 35.8244 68.5593 35.6203 68.908 35.2121C69.2609 34.7996 69.4374 34.1725 69.4374 33.3306C69.4374 32.4037 69.2588 31.7234 68.9016 31.2897C68.5445 30.856 68.1044 30.6391 67.5814 30.6391C67.0712 30.6391 66.6438 30.8474 66.2994 31.2641C65.9593 31.6808 65.7892 32.3378 65.7892 33.2349ZM80.3245 36.6152V35.7606C79.8951 36.4324 79.2637 36.7683 78.4303 36.7683C77.8903 36.7683 77.3928 36.6195 76.9378 36.3218C76.4871 36.0242 76.1363 35.6096 75.8855 35.0782C75.6389 34.5424 75.5155 33.928 75.5155 33.2349C75.5155 32.5589 75.6282 31.9466 75.8536 31.3981C76.0789 30.8453 76.417 30.4223 76.8677 30.1289C77.3184 29.8355 77.8222 29.6888 78.3792 29.6888C78.7874 29.6888 79.151 29.776 79.4699 29.9503C79.7888 30.1204 80.0481 30.3436 80.248 30.62V27.2652H81.3896V36.6152H80.3245ZM76.6955 33.2349C76.6955 34.1023 76.8783 34.7507 77.244 35.1802C77.6096 35.6096 78.0412 35.8244 78.5387 35.8244C79.0404 35.8244 79.4656 35.6203 79.8143 35.2121C80.1672 34.7996 80.3437 34.1725 80.3437 33.3306C80.3437 32.4037 80.1651 31.7234 79.8079 31.2897C79.4507 30.856 79.0107 30.6391 78.4877 30.6391C77.9774 30.6391 77.5501 30.8474 77.2057 31.2641C76.8655 31.6808 76.6955 32.3378 76.6955 33.2349ZM82.7736 33.2285C82.7736 31.9742 83.1223 31.0452 83.8196 30.4414C84.4021 29.9397 85.1122 29.6888 85.9499 29.6888C86.881 29.6888 87.6421 29.9949 88.2332 30.6072C88.8242 31.2152 89.1197 32.0571 89.1197 33.1329C89.1197 34.0045 88.9879 34.6912 88.7243 35.193C88.4649 35.6904 88.0843 36.0774 87.5826 36.3537C87.0851 36.6301 86.5409 36.7683 85.9499 36.7683C85.0017 36.7683 84.2342 36.4643 83.6474 35.8563C83.0649 35.2482 82.7736 34.3723 82.7736 33.2285ZM83.9536 33.2285C83.9536 34.0959 84.1428 34.7465 84.5212 35.1802C84.8996 35.6096 85.3758 35.8244 85.9499 35.8244C86.5196 35.8244 86.9937 35.6075 87.3721 35.1738C87.7506 34.7401 87.9398 34.0789 87.9398 33.1903C87.9398 32.3526 87.7484 31.7191 87.3658 31.2897C86.9873 30.856 86.5154 30.6391 85.9499 30.6391C85.3758 30.6391 84.8996 30.8538 84.5212 31.2833C84.1428 31.7127 83.9536 32.3611 83.9536 33.2285ZM90.4718 36.6152V29.8419H91.5051V30.8049C92.0025 30.0608 92.7211 29.6888 93.6608 29.6888C94.069 29.6888 94.4432 29.7632 94.7833 29.912C95.1277 30.0566 95.385 30.2479 95.555 30.486C95.7251 30.7241 95.8442 31.0069 95.9122 31.3343C95.9547 31.5469 95.976 31.9189 95.976 32.4504V36.6152H94.828V32.4951C94.828 32.0274 94.7833 31.6787 94.694 31.4491C94.6047 31.2152 94.4453 31.0303 94.2157 30.8942C93.9903 30.7539 93.7246 30.6837 93.4184 30.6837C92.9295 30.6837 92.5064 30.8389 92.1492 31.1493C91.7963 31.4597 91.6199 32.0486 91.6199 32.916V36.6152H90.4718ZM102.379 34.434L103.566 34.5807C103.379 35.2737 103.032 35.8116 102.526 36.1943C102.02 36.577 101.374 36.7683 100.587 36.7683C99.5965 36.7683 98.8099 36.4643 98.2274 35.8563C97.6491 35.244 97.36 34.3872 97.36 33.2859C97.36 32.1464 97.6534 31.262 98.2402 30.6327C98.8269 30.0034 99.588 29.6888 100.523 29.6888C101.429 29.6888 102.169 29.9971 102.743 30.6136C103.317 31.2301 103.604 32.0975 103.604 33.2158C103.604 33.2838 103.602 33.3859 103.598 33.5219H98.5463C98.5888 34.266 98.7993 34.8358 99.1777 35.2312C99.5561 35.6267 100.028 35.8244 100.594 35.8244C101.015 35.8244 101.374 35.7138 101.671 35.4927C101.969 35.2716 102.205 34.9187 102.379 34.434ZM98.6101 32.578H102.392C102.341 32.0082 102.197 31.5809 101.958 31.296C101.593 30.8538 101.119 30.6327 100.536 30.6327C100.009 30.6327 99.5646 30.8092 99.2032 31.1621C98.8461 31.515 98.6483 31.987 98.6101 32.578ZM105.339 36.6152V35.3078H106.646V36.6152H105.339Z" fill="black"/>
</svg>
