<svg width="203" height="117" viewBox="0 0 203 117" fill="none" xmlns="http://www.w3.org/2000/svg">
<g clip-path="url(#clip0_2780_122678)">
<path d="M9.61328 0C11.2482 2.80389 12.9714 5.99766 14.9206 9.04953C18.8896 15.2623 23.7567 20.646 30.0822 24.5807C34.4793 27.3159 39.2551 29.0293 44.3679 29.8972C48.3233 30.5679 52.2997 30.6546 56.2746 30.4365C61.5849 30.1452 66.8489 29.337 71.9871 27.9881C80.4968 25.7549 88.9676 23.3662 97.4339 20.9717C104.924 18.8534 112.411 16.7218 120.068 15.2757C123.498 14.6274 126.972 14.2002 130.435 13.7371C134.69 13.1665 138.975 13.0051 143.26 13.1605C157.246 13.6684 169.978 17.9078 181.39 26.0372C184.996 28.6065 190.071 32.8893 192.74 35.7365C192.508 35.6409 192.391 35.611 192.294 35.5513C185.076 31.1864 177.308 28.2555 168.997 26.8423C166.045 26.3404 163.036 26.1358 160.044 25.9072C158.034 25.7534 156.003 25.6787 153.993 25.7743C151.04 25.9132 148.09 26.1701 145.151 26.4898C135.394 27.5549 125.957 30.066 116.627 32.9864C107.653 35.7948 98.7364 38.7809 89.7775 41.6371C83.9642 43.4894 78.0759 45.0953 72.0604 46.1469C69.1081 46.6623 66.1108 46.9476 63.124 47.2329C61.4173 47.3957 59.6896 47.4181 57.9724 47.3883C48.4835 47.2269 39.9543 44.3827 32.5839 38.3014C26.5893 33.3539 22.1548 27.1799 18.4224 20.4503C14.7425 13.8118 11.9338 6.79835 9.61328 0Z" fill="#A53792"/>
<path d="M32.087 106.304C34.5408 107.044 36.9571 107.314 39.4125 107.232C42.8993 107.114 44.4503 105.197 45.5462 102.157C45.6286 101.93 45.4804 101.588 45.3726 101.328C40.6596 90.1039 35.9376 78.8839 31.2186 67.6623C30.8458 66.775 30.4775 65.8847 30.0703 64.9062C30.4356 64.9062 30.7051 64.9062 30.9746 64.9062C35.3657 64.9062 39.7568 64.9242 44.1479 64.8883C44.8456 64.8823 45.133 65.087 45.3366 65.7503C47.6737 73.3702 50.0406 80.9812 52.4031 88.5937C52.4825 88.8491 52.5858 89.0986 52.7445 89.5318C52.9511 88.8625 53.1143 88.3681 53.258 87.8677C55.3779 80.4942 57.5024 73.1207 59.5999 65.7413C59.7765 65.1199 60.0221 64.8809 60.7092 64.8868C64.8009 64.9242 68.8926 64.9048 72.9843 64.9048C73.2313 64.9048 73.4768 64.9048 73.8421 64.9048C73.3032 66.3597 72.8001 67.7251 72.2926 69.0889C67.7518 81.2859 63.2185 93.4844 58.6627 105.675C57.8168 107.939 56.7838 110.118 55.357 112.088C53.4062 114.782 50.6066 116.007 47.4536 116.6C44.2063 117.211 40.9485 117.025 37.6907 116.685C36.3523 116.544 35.0199 116.361 33.6829 116.22C33.2832 116.178 33.1394 116.001 33.099 115.614C32.7756 112.551 32.4358 109.491 32.0885 106.304H32.087Z" fill="white"/>
<path d="M92.1987 101.914H78.0312V64.9632H91.1776V70.9101C91.4905 70.574 91.6507 70.4112 91.8004 70.2394C93.8171 67.921 96.0343 65.8565 99.0421 64.8975C102.602 63.7637 106.207 63.6248 109.759 64.8751C113.744 66.2778 115.919 69.2803 116.737 73.3092C117.012 74.6655 117.192 76.0667 117.201 77.4485C117.247 85.412 117.228 93.377 117.229 101.342C117.229 101.512 117.207 101.684 117.192 101.904H102.995V101.004C102.995 94.5826 103.004 88.1621 102.984 81.7402C102.981 80.8499 102.923 79.9432 102.745 79.0738C101.972 75.3228 97.8085 73.8499 94.7363 76.2027C93.1179 77.441 92.6059 79.2142 92.3783 81.0994C92.2451 82.2063 92.2092 83.3312 92.2062 84.4485C92.1897 89.9487 92.1987 95.449 92.1987 100.949V101.914Z" fill="white"/>
<path d="M145.309 102.895C141.458 102.781 137.714 102.244 134.292 100.443C127.909 97.0869 124.449 91.7958 124.104 84.5582C123.882 79.9199 124.894 75.6148 127.739 71.8519C130.725 67.9037 134.711 65.5241 139.554 64.6054C144.945 63.5806 150.299 63.7345 155.424 65.8273C161.782 68.4236 165.422 73.262 166.474 80.0126C167.1 84.0264 166.753 87.9731 165.034 91.6882C162.275 97.6485 157.466 101.029 151.09 102.239C149.19 102.599 147.237 102.684 145.309 102.896V102.895ZM152.662 83.4678C152.587 83.4543 152.512 83.4409 152.437 83.4274C152.47 81.5736 152.311 79.7422 151.567 78.0228C150.443 75.4236 148.501 73.8446 145.607 73.7923C142.715 73.74 140.565 75.1203 139.388 77.7479C138.87 78.9042 138.568 80.2053 138.424 81.469C138.138 84.0025 138.214 86.539 139.204 88.953C140.331 91.7046 142.71 93.2717 145.61 93.2029C148.432 93.1357 150.757 91.5164 151.642 88.6976C152.171 87.0141 152.335 85.2155 152.663 83.4693L152.662 83.4678Z" fill="white"/>
<path d="M26.8018 91.888C27.1521 95.1475 27.4979 98.3502 27.8558 101.687C26.0802 101.967 24.3525 102.306 22.6068 102.499C19.5526 102.836 16.4895 102.932 13.4368 102.433C9.04721 101.714 6.35685 99.0538 5.71907 94.6321C5.44659 92.7424 5.29837 90.8229 5.26843 88.9138C5.20256 84.6594 5.24747 80.402 5.24747 76.1461C5.24747 75.8758 5.24747 75.6039 5.24747 75.2469H0C0 73.4767 0 71.7932 0 70.1096C0 68.4186 0 66.7291 0 64.9336H5.24747C5.24747 63.9462 5.24747 63.0603 5.24747 62.1745C5.24747 60.9794 5.22801 59.7844 5.26394 58.5908C5.27142 58.3488 5.42713 57.9918 5.62175 57.8917C10.1087 55.5703 14.6106 53.2773 19.111 50.9828C19.1918 50.941 19.2891 50.9335 19.4673 50.8857V51.7417C19.4673 55.8228 19.4912 59.9054 19.4463 63.9865C19.4373 64.7767 19.6874 64.9351 20.418 64.9216C22.6846 64.8768 24.9513 64.9052 27.2794 64.9052V75.208H19.4673C19.4673 75.5382 19.4673 75.8011 19.4673 76.0625C19.4673 80.169 19.4553 84.2755 19.4778 88.382C19.4823 89.1976 19.5481 90.0267 19.7053 90.8259C19.9374 92.0075 20.7623 92.7678 21.9585 92.7021C23.3359 92.6259 24.7013 92.3107 26.0712 92.0911C26.2868 92.0567 26.4949 91.9746 26.8018 91.888Z" fill="white"/>
<path d="M202.999 65.9827C201.531 69.3557 200.087 72.6735 198.637 76.0077C197.716 75.7328 196.854 75.4206 195.964 75.2204C193.229 74.608 191.087 75.6268 189.825 78.1199C188.889 79.9693 188.416 81.9755 188.351 84.01C188.173 89.6044 188.131 95.2032 188.038 100.801C188.032 101.147 188.038 101.494 188.038 101.897H173.852V64.9684H187.061V70.6016C188.786 67.8769 190.338 65.076 193.835 64.2992C197.122 63.5687 200.072 64.5143 203.001 65.9827H202.999Z" fill="white"/>
</g>
<defs>
<clipPath id="clip0_2780_122678">
<rect width="203" height="117" fill="white"/>
</clipPath>
</defs>
</svg>
